# xmcd
#
# Track frame offsets:
#	150
#	10622
#	22418
#	35405
#	50349
#	60579
#	73633
#	89803
#	100569
#	113887
#	125328
#	138183
#	148683
#	161816
#
# Disc length: 2333
#
# Revision: 2
# Processed by: cddbd v1.5.1PL0 Copyright (c) Steve Scherf et al.
# Submitted via: EasyCDDAExtractor 5.0.0.0
# Normalized: r0:DSETVAR1,TSWAP
#
DISCID=c1091b0e
DTITLE=Various Artist - Country Gospel  CD1
DYEAR=1900
DGENRE=Country
TTITLE0=Ferlin Husky - Wings of a dove
TTITLE1=Tennessee Ernie Ford - His hands
TTITLE2=Patsy Cline - Life's railway to heaven
TTITLE3=Glen Campbell - God only knows
TTITLE4=Merle Haggard - Jesus take a hold
TTITLE5=Tennessee Ernie Ford - Sweet hour of prayer
TTITLE6=T. Texas Tyler - Deck of cards
TTITLE7=George Jones - Take these chains from my heart
TTITLE8=Billie Jo Spears - Amazing grace
TTITLE9=The Kendalls - Heaven's just a sin away
TTITLE10=The Jordanaires - Love lifted me
TTITLE11=Freddie Hart - Jesus is my kind of people
TTITLE12=Slim Whitman - Riding the range for jesus
TTITLE13=Bobbie Gentry - I saw an angel die
EXTD=
EXTT0=
EXTT1=
EXTT2=
EXTT3=
EXTT4=
EXTT5=
EXTT6=
EXTT7=
EXTT8=
EXTT9=
EXTT10=
EXTT11=
EXTT12=
EXTT13=
PLAYORDER=
